Coordinates
version=1
nRows=29
nColumns=24
inDegrees=yes

Units are S.I. units (second, meters, Newtons, ...)
If the header above contains a line with 'inDegrees', this indicates whether rotational values are in degrees (yes) or radians (no).

endheader
time	pelvis_tilt	pelvis_list	pelvis_rotation	pelvis_tx	pelvis_ty	pelvis_tz	hip_flexion_r	hip_adduction_r	hip_rotation_r	knee_angle_r	ankle_angle_r	subtalar_angle_r	mtp_angle_r	hip_flexion_l	hip_adduction_l	hip_rotation_l	knee_angle_l	ankle_angle_l	subtalar_angle_l	mtp_angle_l	lumbar_extension	lumbar_bending	lumbar_rotation
      2.31500000	     13.38833877	     -3.12003140	      3.23161654	      0.34328427	      0.92845024	     -0.26336681	     -3.90971015	      8.21910041	     -6.31392755	    -20.35316716	     12.71632565	      0.00000000	      0.00000000	      8.35511900	     -7.45953026	     -5.65956280	    -62.80849287	      6.88516225	      0.00000000	      0.00000000	    -21.52670933	      3.55268992	     -2.09443590
      2.32000000	     13.25859265	     -3.05060922	      2.98714932	      0.35001438	      0.92944831	     -0.26299866	     -4.65330520	      8.17555755	     -6.04301199	    -19.60145312	     12.79537835	      0.00000000	      0.00000000	      8.99540900	     -7.19478675	     -5.77644179	    -61.72397907	      7.20677848	      0.00000000	      0.00000000	    -21.38363903	      3.40669214	     -1.95291309
      2.32500000	     13.12777688	     -2.93429022	      2.65399065	      0.35676811	      0.93043756	     -0.26262794	     -5.39254736	      8.04909445	     -5.73167028	    -18.86104175	     12.80549772	      0.00000000	      0.00000000	      9.55317222	     -6.88679898	     -6.01630908	    -60.51071169	      7.59422490	      0.00000000	      0.00000000	    -21.24679211	      3.18688647	     -1.76726326
      2.33000000	     13.29357999	     -2.66044577	      1.89398203	      0.36323875	      0.93183253	     -0.26182979	     -6.34609539	      7.67783737	     -5.10028392	    -18.33258221	     12.74695237	      0.00000000	      0.00000000	      9.55758307	     -6.48353662	     -6.76496806	    -59.01314450	      7.98881043	      0.00000000	      0.00000000	    -21.52961324	      2.64976958	     -0.85873990
      2.33500000	     13.14566478	     -2.59126753	      1.61680564	      0.36999683	      0.93257666	     -0.26146786	     -7.06138599	      7.59395289	     -4.86201821	    -17.58658442	     12.76921212	      0.00000000	      0.00000000	     10.10172396	     -6.25129716	     -6.97676690	    -57.66574677	      8.31595346	      0.00000000	      0.00000000	    -21.36817255	      2.47826887	     -0.67023732
      2.34000000	     13.18430332	     -2.39884466	      1.02450763	      0.37648951	      0.93359185	     -0.26089930	     -7.88886936	      7.30343719	     -4.36739480	    -17.00057914	     12.74985751	      0.00000000	      0.00000000	     10.26818072	     -5.90182716	     -7.51282340	    -56.07535901	      8.59750036	      0.00000000	      0.00000000	    -21.47313589	      2.13197468	     -0.00839481
      2.34500000	     13.05821024	     -2.28481056	      0.64126315	      0.38312298	      0.93425275	     -0.26050984	     -8.56783520	      7.12160480	     -4.08013599	    -16.34425282	     12.69702060	      0.00000000	      0.00000000	     10.67358897	     -5.62581298	     -7.82991815	    -54.50553385	      8.88893758	      0.00000000	      0.00000000	    -21.34899667	      1.89985943	      0.27747144
      2.35000000	     12.87477039	     -2.29681281	      0.38078659	      0.38964406	      0.93459057	     -0.26028459	     -9.17509753	      7.09489016	     -3.87317386	    -15.68085361	     12.81532505	      0.00000000	      0.00000000	     11.20714822	     -5.47810750	     -7.99651623	    -52.98168720	      9.09414047	      0.00000000	      0.00000000	    -21.18815887	      1.91120285	      0.38202670
      2.35500000	     12.68168567	     -2.23709502	      0.05937949	      0.39632221	      0.93493238	     -0.25997158	     -9.78934586	      6.97491347	     -3.61836182	    -14.99944851	     12.82117529	      0.00000000	      0.00000000	     11.64586670	     -5.26925030	     -8.26164618	    -51.29269871	      9.32045110	      0.00000000	      0.00000000	    -20.97340924	      1.75650202	      0.55823831
      2.36000000	     12.72535027	     -2.01249828	     -0.64998748	      0.40278953	      0.93566870	     -0.25921629	    -10.55844001	      6.58220470	     -3.06975806	    -14.51156117	     12.77263466	      0.00000000	      0.00000000	     11.60816487	     -4.94619739	     -8.98115377	    -49.29943807	      9.39856314	      0.00000000	      0.00000000	    -21.08439574	      1.27614145	      1.51966163
      2.36500000	     12.51146546	     -2.06813258	     -0.86522794	      0.40923668	      0.93565903	     -0.25914476	    -11.09635048	      6.58228458	     -2.92338469	    -13.89903405	     12.83638315	      0.00000000	      0.00000000	     12.09669278	     -4.84359090	     -9.09421443	    -47.58145036	      9.55906646	      0.00000000	      0.00000000	    -20.89703518	      1.37089647	      1.58896614
      2.37000000	     12.31135669	     -1.91089421	     -1.30589114	      0.41591516	      0.93585718	     -0.25869513	    -11.63835281	      6.30300772	     -2.64070532	    -13.32821879	     12.67218473	      0.00000000	      0.00000000	     12.35559437	     -4.54844748	     -9.48775202	    -45.54628810	      9.59827128	      0.00000000	      0.00000000	    -20.67244681	      1.01489914	      1.92838755
      2.37500000	     12.10086440	     -2.01742614	     -1.52464303	      0.42223759	      0.93561054	     -0.25867713	    -12.13437527	      6.34350686	     -2.49607338	    -12.79340472	     12.80933175	      0.00000000	      0.00000000	     12.79634056	     -4.51384423	     -9.60827239	    -43.73175350	      9.67101300	      0.00000000	      0.00000000	    -20.54347544	      1.20723332	      2.02100933
      2.38000000	     11.89761205	     -1.86008228	     -2.02230284	      0.42893405	      0.93565303	     -0.25820410	    -12.66366282	      6.03620002	     -2.18009469	    -12.23247825	     12.67287501	      0.00000000	      0.00000000	     12.95849896	     -4.23258924	    -10.05763761	    -41.52197923	      9.52811448	      0.00000000	      0.00000000	    -20.31672936	      0.83386912	      2.51992316
      2.38500000	     11.68649043	     -2.00988232	     -2.21672994	      0.43518079	      0.93519773	     -0.25822314	    -13.13709651	      6.12170837	     -2.04607861	    -11.73119624	     12.81584094	      0.00000000	      0.00000000	     13.35080709	     -4.24863065	    -10.13550466	    -39.61501216	      9.55149209	      0.00000000	      0.00000000	    -20.17199493	      1.06879432	      2.62454979
      2.39000000	     11.49096464	     -1.91154902	     -2.70556419	      0.44186361	      0.93503111	     -0.25781993	    -13.66116747	      5.86098463	     -1.72386444	    -11.19584502	     12.76216955	      0.00000000	      0.00000000	     13.45662585	     -4.04069108	    -10.56949985	    -37.32574655	      9.25223256	      0.00000000	      0.00000000	    -19.97710380	      0.80864628	      3.26666309
      2.39500000	     11.27312770	     -2.11184126	     -2.87308401	      0.44797303	      0.93435623	     -0.25797343	    -14.06532045	      5.98867814	     -1.66118292	    -10.80464788	     12.87890977	      0.00000000	      0.00000000	     13.81893239	     -4.09450161	    -10.56609304	    -35.34245540	      9.24704042	      0.00000000	      0.00000000	    -19.85449731	      1.14167190	      3.31418997
      2.40000000	     10.98536568	     -2.02460292	     -3.27131276	      0.45483563	      0.93391775	     -0.25769350	    -14.50921959	      5.75723317	     -1.45918351	    -10.24202378	     12.77917733	      0.00000000	      0.00000000	     13.97538568	     -3.88888318	    -10.90420712	    -32.96768005	      8.77793097	      0.00000000	      0.00000000	    -19.54690251	      0.91481706	      3.75674842
      2.40500000	     10.73575505	     -2.15458545	     -3.49712232	      0.46128076	      0.93317009	     -0.25766155	    -14.94402084	      5.79937514	     -1.32401366	     -9.76397855	     12.85009139	      0.00000000	      0.00000000	     14.23244192	     -3.89425899	    -10.99092476	    -30.80227994	      8.53200235	      0.00000000	      0.00000000	    -19.31262227	      1.04395263	      3.97215075
      2.41000000	     10.48695371	     -2.22471658	     -3.82593089	      0.46773261	      0.93241842	     -0.25769483	    -15.31012141	      5.72402450	     -1.20672671	     -9.40807305	     12.87555553	      0.00000000	      0.00000000	     14.40524447	     -3.83418118	    -11.16767075	    -28.51630419	      8.08872804	      0.00000000	      0.00000000	    -19.12285750	      1.12544530	      4.31841912
      2.41500000	     10.25306732	     -2.49262695	     -3.99546057	      0.47389661	      0.93139083	     -0.25797789	    -15.66763854	      5.89809511	     -1.17495424	     -9.10206151	     13.02595083	      0.00000000	      0.00000000	     14.68546343	     -3.96148826	    -11.10368873	    -26.43718517	      7.98061766	      0.00000000	      0.00000000	    -19.01177603	      1.52747032	      4.36487408
      2.42000000	      9.94759564	     -2.48783068	     -4.30661558	      0.48070755	      0.93050469	     -0.25787013	    -16.03784650	      5.76357155	     -1.05057444	     -8.64971526	     13.00549975	      0.00000000	      0.00000000	     14.81538465	     -3.84102875	    -11.31098328	    -24.02699755	      7.22136974	      0.00000000	      0.00000000	    -18.67495017	      1.46296111	      4.74415675
      2.42500000	      9.70617445	     -2.64211326	     -4.61614095	      0.48712945	      0.92948154	     -0.25797906	    -16.37500630	      5.77109765	     -0.94685430	     -8.38257921	     13.11404194	      0.00000000	      0.00000000	     14.94551089	     -3.87789746	    -11.41891597	    -21.75852531	      6.70553532	      0.00000000	      0.00000000	    -18.50709887	      1.65494954	      5.11908234
      2.43000000	      9.48105386	     -2.95027812	     -4.77201780	      0.49334069	      0.92821544	     -0.25835362	    -16.69531698	      5.97806014	     -0.95268780	     -8.19355054	     13.27524754	      0.00000000	      0.00000000	     15.17268911	     -4.05305854	    -11.30225826	    -19.70517026	      6.58300001	      0.00000000	      0.00000000	    -18.41531000	      2.10246604	      5.14811894
      2.43500000	      9.18492047	     -2.98632438	     -5.09358269	      0.50011997	      0.92707819	     -0.25838038	    -17.01427695	      5.86391201	     -0.84341939	     -7.86876777	     13.32872614	      0.00000000	      0.00000000	     15.25144742	     -3.97182288	    -11.44360685	    -17.31408310	      5.61158084	      0.00000000	      0.00000000	    -18.10875584	      2.12634792	      5.57088945
      2.44000000	      8.97311480	     -3.30542808	     -5.26977323	      0.50639569	      0.92569738	     -0.25877607	    -17.31526925	      6.06428464	     -0.85741122	     -7.75453868	     13.50214381	      0.00000000	      0.00000000	     15.43341739	     -4.16808883	    -11.30428985	    -15.31284429	      5.47900225	      0.00000000	      0.00000000	    -18.02411046	      2.58326866	      5.61274718
      2.44500000	      8.73076386	     -3.55467800	     -5.47780900	      0.51284682	      0.92429027	     -0.25913169	    -17.61459531	      6.18692893	     -0.82736014	     -7.59369204	     13.66281369	      0.00000000	      0.00000000	     15.57395052	     -4.28899488	    -11.17512744	    -13.22939394	      5.08877842	      0.00000000	      0.00000000	    -17.87248388	      2.94669655	      5.72141206
      2.45000000	      8.47420126	     -3.71799729	     -5.75317580	      0.51958739	      0.92286108	     -0.25936158	    -17.90046775	      6.19733856	     -0.76425060	     -7.44393626	     13.81465608	      0.00000000	      0.00000000	     15.66491898	     -4.34531510	    -11.11816386	    -11.14400386	      4.38528105	      0.00000000	      0.00000000	    -17.68759380	      3.16217106	      5.96555669
      2.45500000	      8.26343265	     -3.81378541	     -6.19948213	      0.52636176	      0.92151837	     -0.25939777	    -18.16884063	      6.07033992	     -0.61360348	     -7.42760605	     14.00094880	      0.00000000	      0.00000000	     15.62738390	     -4.37293516	    -11.33609628	     -9.01566924	      3.34223867	      0.00000000	      0.00000000	    -17.52005211	      3.23223648	      6.68035912
